<?xml version="1.0" standalone="no"?>
<!DOCTYPE svg PUBLIC "-//W3C//DTD SVG 20010904//EN"
 "http://www.w3.org/TR/2001/REC-SVG-20010904/DTD/svg10.dtd">
<svg version="1.0" xmlns="http://www.w3.org/2000/svg"
 width="680.000000pt" height="392.000000pt" viewBox="0 0 680.000000 392.000000"
 preserveAspectRatio="xMidYMid meet">

<g transform="translate(0.000000,392.000000) scale(0.100000,-0.100000)"
fill="#000000" stroke="none">
<path d="M2862 2343 c-36 -69 -163 -386 -160 -400 2 -10 11 -19 21 -21 13 -3
23 10 39 47 l21 51 101 0 102 0 22 -51 c16 -38 26 -50 39 -47 10 2 19 10 21
18 4 25 -164 415 -181 418 -9 2 -20 -5 -25 -15z m69 -183 l38 -90 -85 0 -84 0
16 38 c8 20 25 59 35 86 25 61 29 69 37 62 3 -3 22 -47 43 -96z"/>
<path d="M625 2328 c-3 -7 -4 -106 -3 -218 3 -197 4 -205 23 -205 18 0 20 8
23 98 l3 97 134 0 134 0 3 -97 c3 -90 5 -98 23 -98 19 0 20 7 20 215 0 208 -1
215 -20 215 -18 0 -20 -8 -23 -92 l-3 -93 -134 0 -134 0 -3 92 c-3 79 -6 93
-21 96 -9 2 -19 -3 -22 -10z"/>
<path d="M1321 2326 c-9 -11 -11 -60 -9 -170 3 -138 5 -158 24 -182 39 -53 70
-68 144 -72 61 -4 75 -1 113 22 70 40 78 67 75 253 -3 150 -4 158 -23 158 -19
0 -20 -8 -25 -162 -5 -154 -6 -163 -29 -187 -51 -55 -157 -54 -200 1 -19 23
-21 40 -21 177 0 105 -4 156 -12 164 -16 16 -23 15 -37 -2z"/>
<path d="M2041 2326 c-8 -9 -11 -74 -9 -211 3 -177 5 -199 21 -209 27 -17 37
8 37 92 l0 72 43 0 43 0 50 -82 c28 -46 58 -84 67 -86 34 -7 28 28 -17 102
l-45 75 35 35 c29 29 34 41 34 83 0 60 -28 109 -75 129 -45 18 -169 19 -184 0z
m183 -61 c35 -32 36 -86 1 -120 -20 -21 -34 -25 -80 -25 l-55 0 0 85 0 85 54
0 c43 0 58 -5 80 -25z"/>
<path d="M3482 2328 c-9 -9 -12 -69 -12 -209 0 -162 3 -199 15 -209 29 -24 45
5 45 85 0 57 4 75 18 88 10 10 21 17 23 17 3 0 38 -45 79 -100 72 -97 100
-118 108 -78 2 9 -31 62 -73 119 l-76 103 76 76 c41 41 75 83 75 92 0 40 -27
25 -119 -66 -53 -53 -100 -96 -104 -96 -4 0 -7 37 -7 83 0 75 -9 107 -30 107
-3 0 -11 -5 -18 -12z"/>
<path d="M4264 2303 c-95 -225 -154 -378 -150 -389 11 -30 38 -13 59 36 l21
51 104 -3 104 -3 18 -45 c18 -47 51 -62 58 -27 3 15 -114 309 -155 390 -19 37
-40 34 -59 -10z m77 -156 l37 -92 -75 -3 c-42 -2 -78 -1 -80 2 -6 6 67 186 76
186 3 0 22 -42 42 -93z"/>
<path d="M4874 2327 c-2 -7 -3 -105 -2 -217 3 -197 4 -205 23 -205 19 0 20 8
25 165 l5 165 122 -162 c67 -89 127 -164 133 -168 6 -4 17 -1 25 5 22 18 22
402 0 420 -12 10 -18 10 -30 0 -11 -9 -15 -45 -17 -168 l-3 -155 -119 159
c-136 181 -149 194 -162 161z"/>
<path d="M5303 2328 c-15 -20 -1 -113 17 -113 19 0 34 93 18 112 -13 16 -23
16 -35 1z"/>
<path d="M5574 2326 c-11 -28 7 -36 76 -36 l70 0 2 -192 c3 -185 4 -193 23
-193 19 0 20 8 23 192 l2 192 73 3 c64 3 72 5 72 23 0 19 -8 20 -168 23 -140
2 -168 0 -173 -12z"/>
</g>
</svg>
